<?xml version="1.0" encoding="UTF-8"?>
<svg width="229px" height="52px" viewBox="0 0 229 52" version="1.1" xmlns="http://www.w3.org/2000/svg" xmlns:xlink="http://www.w3.org/1999/xlink">
    <!-- Generator: Sketch 41 (35326) - http://www.bohemiancoding.com/sketch -->
    <title>Abacus</title>
    <desc>Created with Sketch.</desc>
    <defs></defs>
    <g id="Page-1" stroke="none" stroke-width="1" fill="none" fill-rule="evenodd">
        <g id="A4" transform="translate(-61.000000, -52.000000)">
            <g id="Abacus" transform="translate(61.000000, 52.000000)">
                <path d="M66.3589,49.5963 C66.6519,49.4943 66.8919,49.3563 67.0789,49.1803 C67.2659,49.0043 67.4049,48.8013 67.4959,48.5723 C67.5859,48.3423 67.6309,48.0943 67.6309,47.8273 C67.6309,47.5613 67.5859,47.3133 67.4959,47.0833 C67.4049,46.8543 67.2659,46.6513 67.0789,46.4753 C66.8919,46.2993 66.6519,46.1603 66.3589,46.0593 C66.0649,45.9573 65.7209,45.9073 65.3269,45.9073 L63.1659,45.9073 L63.1659,49.7483 L65.3269,49.7483 C65.7209,49.7483 66.0649,49.6983 66.3589,49.5963 L66.3589,49.5963 Z M66.4869,44.1783 C66.8439,43.8583 67.0229,43.4253 67.0229,42.8813 C67.0229,42.3373 66.8439,41.9053 66.4869,41.5853 C66.1299,41.2653 65.6299,41.1053 64.9899,41.1053 L63.1659,41.1053 L63.1659,44.6593 L64.9899,44.6593 C65.6299,44.6593 66.1299,44.4983 66.4869,44.1783 L66.4869,44.1783 Z M64.7659,39.8253 C65.3419,39.8253 65.8539,39.8963 66.3019,40.0403 C66.7509,40.1843 67.1279,40.3903 67.4309,40.6573 C67.7349,40.9233 67.9669,41.2383 68.1279,41.6013 C68.2879,41.9633 68.3679,42.3693 68.3679,42.8183 C68.3679,43.2343 68.3089,43.5833 68.1919,43.8663 C68.0739,44.1493 67.9379,44.3783 67.7839,44.5543 C67.6289,44.7303 67.4849,44.8583 67.3509,44.9383 C67.2169,45.0183 67.1349,45.0643 67.1029,45.0753 C67.1459,45.0853 67.2659,45.1303 67.4629,45.2103 C67.6609,45.2903 67.8719,45.4323 68.0949,45.6343 C68.3199,45.8373 68.5219,46.1123 68.7039,46.4583 C68.8849,46.8063 68.9759,47.2513 68.9759,47.7953 C68.9759,48.2973 68.8899,48.7473 68.7189,49.1483 C68.5489,49.5483 68.3029,49.8873 67.9829,50.1643 C67.6639,50.4423 67.2789,50.6563 66.8309,50.8053 C66.3819,50.9543 65.8809,51.0293 65.3269,51.0293 L61.8209,51.0293 L61.8209,39.8253 L64.7659,39.8253 L64.7659,39.8253 Z" id="Fill-1" fill="#5B5B5B"></path>
                <path d="M74.8286,51.0367 C74.4976,50.9147 74.2046,50.7327 73.9486,50.4927 C73.6916,50.2527 73.4866,49.9567 73.3326,49.6037 C73.1776,49.2527 73.0996,48.8467 73.0996,48.3887 L73.0996,43.6347 L74.4446,43.6347 L74.4446,48.1637 C74.4446,48.4837 74.4926,48.7567 74.5886,48.9797 C74.6846,49.2037 74.8126,49.3907 74.9736,49.5407 C75.1336,49.6897 75.3166,49.7997 75.5246,49.8687 C75.7326,49.9377 75.9496,49.9727 76.1736,49.9727 C76.6536,49.9727 77.0456,49.8477 77.3496,49.5967 C77.6536,49.3457 77.8916,49.0647 78.0616,48.7567 L78.0616,43.6347 L79.4066,43.6347 L79.4066,51.0287 L78.1576,51.0287 L78.1576,49.8917 C78.0726,50.0417 77.9636,50.1937 77.8296,50.3487 C77.6966,50.5037 77.5336,50.6447 77.3426,50.7727 C77.1496,50.9007 76.9316,51.0077 76.6856,51.0937 C76.4396,51.1787 76.1686,51.2217 75.8696,51.2217 C75.5066,51.2217 75.1596,51.1597 74.8286,51.0367" id="Fill-3" fill="#5B5B5B"></path>
                <path d="M84.8208,49.2203 C84.9648,49.3593 85.1328,49.4873 85.3248,49.6043 C85.5168,49.7213 85.7278,49.8183 85.9568,49.8923 C86.1858,49.9673 86.4398,50.0043 86.7168,50.0043 C86.8878,50.0043 87.0668,49.9893 87.2538,49.9563 C87.4398,49.9243 87.6108,49.8683 87.7658,49.7883 C87.9208,49.7083 88.0488,49.6073 88.1498,49.4843 C88.2518,49.3623 88.3018,49.2093 88.3018,49.0283 C88.3018,48.8573 88.2518,48.7073 88.1498,48.5793 C88.0488,48.4513 87.9158,48.3453 87.7498,48.2593 C87.5848,48.1743 87.4028,48.1053 87.2058,48.0513 C87.0088,47.9983 86.8128,47.9503 86.6218,47.9083 C86.3758,47.8543 86.0978,47.7803 85.7888,47.6833 C85.4788,47.5873 85.1858,47.4563 84.9088,47.2913 C84.6318,47.1253 84.3958,46.9093 84.2048,46.6433 C84.0118,46.3763 83.9168,46.0513 83.9168,45.6663 C83.9168,45.3673 83.9798,45.0823 84.1078,44.8103 C84.2358,44.5383 84.4208,44.3003 84.6608,44.0983 C84.9008,43.8953 85.1858,43.7353 85.5168,43.6173 C85.8468,43.5003 86.2208,43.4423 86.6368,43.4423 C87.2668,43.4423 87.8138,43.5593 88.2778,43.7933 C88.7418,44.0293 89.1078,44.2843 89.3748,44.5623 L88.4938,45.4743 C88.3018,45.2823 88.0508,45.0983 87.7418,44.9223 C87.4318,44.7463 87.0528,44.6583 86.6048,44.6583 C86.1568,44.6583 85.8158,44.7573 85.5808,44.9543 C85.3458,45.1523 85.2288,45.3733 85.2288,45.6183 C85.2288,45.7893 85.2798,45.9333 85.3808,46.0513 C85.4818,46.1683 85.6188,46.2673 85.7888,46.3473 C85.9598,46.4273 86.1518,46.4963 86.3648,46.5553 C86.5788,46.6143 86.7978,46.6693 87.0208,46.7233 C87.2998,46.7863 87.5898,46.8663 87.8938,46.9633 C88.1978,47.0593 88.4778,47.1933 88.7338,47.3643 C88.9898,47.5333 89.2038,47.7503 89.3748,48.0113 C89.5458,48.2733 89.6308,48.5963 89.6308,48.9803 C89.6308,49.3643 89.5458,49.6983 89.3748,49.9803 C89.2038,50.2633 88.9818,50.4953 88.7108,50.6763 C88.4378,50.8583 88.1258,50.9933 87.7738,51.0843 C87.4218,51.1753 87.0698,51.2213 86.7168,51.2213 C86.3438,51.2213 85.9948,51.1753 85.6688,51.0843 C85.3428,50.9933 85.0478,50.8743 84.7808,50.7253 C84.5138,50.5753 84.2738,50.4093 84.0598,50.2283 C83.8468,50.0473 83.6708,49.8603 83.5318,49.6683 L84.4608,48.8043 C84.5558,48.9433 84.6758,49.0813 84.8208,49.2203" id="Fill-5" fill="#5B5B5B"></path>
                <path d="M94.092,51.0292 L95.437,51.0292 L95.437,43.6342 L94.092,43.6342 L94.092,51.0292 Z M94.125,40.6242 C94.305,40.4432 94.519,40.3522 94.764,40.3522 C95.01,40.3522 95.223,40.4432 95.405,40.6242 C95.586,40.8062 95.677,41.0192 95.677,41.2652 C95.677,41.5102 95.586,41.7242 95.405,41.9052 C95.223,42.0862 95.01,42.1772 94.764,42.1772 C94.519,42.1772 94.305,42.0862 94.125,41.9052 C93.943,41.7242 93.852,41.5102 93.852,41.2652 C93.852,41.0192 93.943,40.8062 94.125,40.6242 L94.125,40.6242 Z" id="Fill-7" fill="#5B5B5B"></path>
                <path d="M104.8697,43.6256 C105.2057,43.7486 105.5017,43.9306 105.7587,44.1706 C106.0147,44.4096 106.2167,44.7066 106.3657,45.0586 C106.5157,45.4106 106.5907,45.8156 106.5907,46.2746 L106.5907,51.0286 L105.2457,51.0286 L105.2457,46.4986 C105.2457,46.1796 105.1977,45.9066 105.1017,45.6836 C105.0057,45.4586 104.8807,45.2716 104.7247,45.1226 C104.5707,44.9736 104.3897,44.8636 104.1817,44.7946 C103.9737,44.7256 103.7577,44.6896 103.5327,44.6896 C103.2877,44.6896 103.0657,44.7286 102.8687,44.8026 C102.6717,44.8776 102.4957,44.9766 102.3407,45.0986 C102.1857,45.2216 102.0497,45.3566 101.9317,45.5066 C101.8147,45.6556 101.7137,45.8006 101.6287,45.9386 L101.6287,51.0286 L100.2837,51.0286 L100.2837,43.6346 L101.5317,43.6346 L101.5317,44.6746 C101.7237,44.3646 102.0097,44.0816 102.3887,43.8256 C102.7667,43.5696 103.2447,43.4416 103.8207,43.4416 C104.1837,43.4416 104.5337,43.5036 104.8697,43.6256" id="Fill-9" fill="#5B5B5B"></path>
                <path d="M116.503,46.0347 C116.401,45.8007 116.257,45.5817 116.07,45.3787 C115.884,45.1757 115.649,45.0107 115.366,44.8827 C115.083,44.7547 114.75,44.6897 114.365,44.6897 C113.97,44.6897 113.631,44.7597 113.349,44.8977 C113.066,45.0367 112.832,45.2057 112.644,45.4027 C112.458,45.5997 112.314,45.8157 112.212,46.0517 C112.111,46.2857 112.049,46.4987 112.028,46.6907 L116.671,46.6907 C116.66,46.4887 116.604,46.2697 116.503,46.0347 M115.815,43.7217 C116.257,43.9087 116.639,44.1727 116.959,44.5137 C117.278,44.8557 117.529,45.2687 117.711,45.7547 C117.893,46.2397 117.983,46.7817 117.983,47.3797 L117.983,47.5877 C117.983,47.6517 117.978,47.7257 117.967,47.8107 L111.997,47.8107 C112.017,48.0897 112.097,48.3587 112.236,48.6197 C112.375,48.8817 112.556,49.1137 112.781,49.3157 C113.004,49.5187 113.266,49.6797 113.565,49.7967 C113.864,49.9137 114.19,49.9727 114.542,49.9727 C115.054,49.9727 115.499,49.8597 115.878,49.6367 C116.257,49.4127 116.553,49.1617 116.767,48.8847 L117.615,49.7637 C117.455,49.9457 117.271,50.1247 117.063,50.3007 C116.855,50.4767 116.62,50.6347 116.358,50.7727 C116.097,50.9117 115.812,51.0207 115.502,51.1007 C115.192,51.1807 114.857,51.2217 114.493,51.2217 C113.949,51.2217 113.442,51.1227 112.972,50.9247 C112.503,50.7267 112.1,50.4527 111.764,50.0997 C111.428,49.7487 111.164,49.3327 110.972,48.8517 C110.78,48.3717 110.684,47.8537 110.684,47.2997 C110.684,46.7767 110.772,46.2797 110.948,45.8107 C111.124,45.3417 111.372,44.9307 111.692,44.5787 C112.012,44.2257 112.399,43.9487 112.852,43.7457 C113.306,43.5437 113.81,43.4417 114.365,43.4417 C114.889,43.4417 115.371,43.5347 115.815,43.7217" id="Fill-10" fill="#5B5B5B"></path>
                <path d="M122.8848,49.2203 C123.0288,49.3593 123.1968,49.4873 123.3888,49.6043 C123.5808,49.7213 123.7918,49.8183 124.0208,49.8923 C124.2498,49.9673 124.5038,50.0043 124.7808,50.0043 C124.9518,50.0043 125.1308,49.9893 125.3178,49.9563 C125.5038,49.9243 125.6748,49.8683 125.8298,49.7883 C125.9848,49.7083 126.1128,49.6073 126.2138,49.4843 C126.3158,49.3623 126.3658,49.2093 126.3658,49.0283 C126.3658,48.8573 126.3158,48.7073 126.2138,48.5793 C126.1128,48.4513 125.9798,48.3453 125.8138,48.2593 C125.6488,48.1743 125.4668,48.1053 125.2698,48.0513 C125.0728,47.9983 124.8768,47.9503 124.6858,47.9083 C124.4398,47.8543 124.1618,47.7803 123.8528,47.6833 C123.5428,47.5873 123.2498,47.4563 122.9728,47.2913 C122.6958,47.1253 122.4598,46.9093 122.2688,46.6433 C122.0758,46.3763 121.9808,46.0513 121.9808,45.6663 C121.9808,45.3673 122.0438,45.0823 122.1718,44.8103 C122.2998,44.5383 122.4848,44.3003 122.7248,44.0983 C122.9648,43.8953 123.2498,43.7353 123.5808,43.6173 C123.9108,43.5003 124.2848,43.4423 124.7008,43.4423 C125.3308,43.4423 125.8778,43.5593 126.3418,43.7933 C126.8058,44.0293 127.1718,44.2843 127.4388,44.5623 L126.5578,45.4743 C126.3658,45.2823 126.1148,45.0983 125.8058,44.9223 C125.4958,44.7463 125.1168,44.6583 124.6688,44.6583 C124.2208,44.6583 123.8798,44.7573 123.6448,44.9543 C123.4098,45.1523 123.2928,45.3733 123.2928,45.6183 C123.2928,45.7893 123.3438,45.9333 123.4448,46.0513 C123.5458,46.1683 123.6828,46.2673 123.8528,46.3473 C124.0238,46.4273 124.2158,46.4963 124.4288,46.5553 C124.6428,46.6143 124.8618,46.6693 125.0848,46.7233 C125.3638,46.7863 125.6538,46.8663 125.9578,46.9633 C126.2618,47.0593 126.5418,47.1933 126.7978,47.3643 C127.0538,47.5333 127.2678,47.7503 127.4388,48.0113 C127.6098,48.2733 127.6948,48.5963 127.6948,48.9803 C127.6948,49.3643 127.6098,49.6983 127.4388,49.9803 C127.2678,50.2633 127.0458,50.4953 126.7748,50.6763 C126.5018,50.8583 126.1898,50.9933 125.8378,51.0843 C125.4858,51.1753 125.1338,51.2213 124.7808,51.2213 C124.4078,51.2213 124.0588,51.1753 123.7328,51.0843 C123.4068,50.9933 123.1118,50.8743 122.8448,50.7253 C122.5778,50.5753 122.3378,50.4093 122.1238,50.2283 C121.9108,50.0473 121.7348,49.8603 121.5958,49.6683 L122.5248,48.8043 C122.6198,48.9433 122.7398,49.0813 122.8848,49.2203" id="Fill-11" fill="#5B5B5B"></path>
                <path d="M132.7246,49.2203 C132.8686,49.3593 133.0366,49.4873 133.2286,49.6043 C133.4206,49.7213 133.6316,49.8183 133.8606,49.8923 C134.0896,49.9673 134.3436,50.0043 134.6206,50.0043 C134.7916,50.0043 134.9706,49.9893 135.1576,49.9563 C135.3436,49.9243 135.5146,49.8683 135.6696,49.7883 C135.8246,49.7083 135.9526,49.6073 136.0536,49.4843 C136.1556,49.3623 136.2056,49.2093 136.2056,49.0283 C136.2056,48.8573 136.1556,48.7073 136.0536,48.5793 C135.9526,48.4513 135.8196,48.3453 135.6536,48.2593 C135.4886,48.1743 135.3066,48.1053 135.1096,48.0513 C134.9126,47.9983 134.7166,47.9503 134.5256,47.9083 C134.2796,47.8543 134.0016,47.7803 133.6926,47.6833 C133.3826,47.5873 133.0896,47.4563 132.8126,47.2913 C132.5356,47.1253 132.2996,46.9093 132.1086,46.6433 C131.9156,46.3763 131.8206,46.0513 131.8206,45.6663 C131.8206,45.3673 131.8836,45.0823 132.0116,44.8103 C132.1396,44.5383 132.3246,44.3003 132.5646,44.0983 C132.8046,43.8953 133.0896,43.7353 133.4206,43.6173 C133.7506,43.5003 134.1246,43.4423 134.5406,43.4423 C135.1706,43.4423 135.7176,43.5593 136.1816,43.7933 C136.6456,44.0293 137.0116,44.2843 137.2786,44.5623 L136.3976,45.4743 C136.2056,45.2823 135.9546,45.0983 135.6456,44.9223 C135.3356,44.7463 134.9566,44.6583 134.5086,44.6583 C134.0606,44.6583 133.7196,44.7573 133.4846,44.9543 C133.2496,45.1523 133.1326,45.3733 133.1326,45.6183 C133.1326,45.7893 133.1836,45.9333 133.2846,46.0513 C133.3856,46.1683 133.5226,46.2673 133.6926,46.3473 C133.8636,46.4273 134.0556,46.4963 134.2686,46.5553 C134.4826,46.6143 134.7016,46.6693 134.9246,46.7233 C135.2036,46.7863 135.4936,46.8663 135.7976,46.9633 C136.1016,47.0593 136.3816,47.1933 136.6376,47.3643 C136.8936,47.5333 137.1076,47.7503 137.2786,48.0113 C137.4496,48.2733 137.5346,48.5963 137.5346,48.9803 C137.5346,49.3643 137.4496,49.6983 137.2786,49.9803 C137.1076,50.2633 136.8856,50.4953 136.6146,50.6763 C136.3416,50.8583 136.0296,50.9933 135.6776,51.0843 C135.3256,51.1753 134.9736,51.2213 134.6206,51.2213 C134.2476,51.2213 133.8986,51.1753 133.5726,51.0843 C133.2466,50.9933 132.9516,50.8743 132.6846,50.7253 C132.4176,50.5753 132.1776,50.4093 131.9636,50.2283 C131.7506,50.0473 131.5746,49.8603 131.4356,49.6683 L132.3646,48.8043 C132.4596,48.9433 132.5796,49.0813 132.7246,49.2203" id="Fill-12" fill="#5B5B5B"></path>
                <path d="M154.0703,47.4195 C153.9583,47.2115 153.8053,47.0245 153.6143,46.8585 C153.4223,46.6935 153.1923,46.5445 152.9253,46.4105 L152.0613,45.9865 C151.6983,45.8155 151.3333,45.6345 150.9653,45.4425 C150.5963,45.2505 150.2653,45.0265 149.9723,44.7705 C149.6783,44.5145 149.4413,44.2185 149.2593,43.8825 C149.0793,43.5455 148.9883,43.1535 148.9883,42.7055 C148.9883,42.3315 149.0573,41.9615 149.1963,41.5935 C149.3353,41.2255 149.5373,40.8975 149.8043,40.6085 C150.0713,40.3205 150.4043,40.0855 150.8043,39.9045 C151.2053,39.7235 151.6723,39.6325 152.2053,39.6325 C152.6003,39.6325 152.9663,39.6835 153.3013,39.7845 C153.6373,39.8855 153.9393,40.0165 154.2063,40.1765 C154.4723,40.3365 154.7083,40.5125 154.9103,40.7045 C155.1133,40.8975 155.2783,41.0835 155.4063,41.2655 L154.3983,42.0815 C154.3013,41.9425 154.1813,41.8045 154.0383,41.6645 C153.8933,41.5255 153.7283,41.4005 153.5423,41.2885 C153.3553,41.1775 153.1493,41.0865 152.9253,41.0175 C152.7013,40.9475 152.4613,40.9125 152.2053,40.9125 C151.8953,40.9125 151.6263,40.9605 151.3963,41.0575 C151.1683,41.1525 150.9723,41.2805 150.8123,41.4405 C150.6523,41.6015 150.5323,41.7845 150.4523,41.9925 C150.3723,42.2015 150.3333,42.4115 150.3333,42.6255 C150.3333,42.8925 150.3913,43.1245 150.5083,43.3215 C150.6263,43.5195 150.7913,43.7035 151.0053,43.8735 C151.2173,44.0445 151.4793,44.2105 151.7893,44.3705 C152.0983,44.5295 152.4453,44.6955 152.8293,44.8665 C153.2573,45.0585 153.6433,45.2585 153.9903,45.4665 C154.3373,45.6745 154.6303,45.9015 154.8703,46.1475 C155.1103,46.3925 155.2953,46.6695 155.4233,46.9795 C155.5503,47.2885 155.6143,47.6515 155.6143,48.0675 C155.6143,48.5585 155.5263,48.9985 155.3503,49.3885 C155.1743,49.7775 154.9313,50.1085 154.6223,50.3805 C154.3123,50.6525 153.9473,50.8605 153.5253,51.0045 C153.1043,51.1485 152.6533,51.2215 152.1733,51.2215 C151.6933,51.2215 151.2603,51.1535 150.8773,51.0215 C150.4923,50.8875 150.1513,50.7115 149.8523,50.4925 C149.5533,50.2735 149.2983,50.0235 149.0843,49.7405 C148.8703,49.4575 148.7003,49.1725 148.5723,48.8845 L149.6923,48.2115 C149.7883,48.4365 149.9143,48.6515 150.0683,48.8595 C150.2233,49.0675 150.4023,49.2525 150.6043,49.4125 C150.8073,49.5715 151.0393,49.7005 151.3003,49.7965 C151.5623,49.8925 151.8473,49.9405 152.1573,49.9405 C152.4243,49.9405 152.6823,49.9025 152.9333,49.8285 C153.1843,49.7535 153.4053,49.6415 153.5973,49.4915 C153.7903,49.3435 153.9443,49.1585 154.0623,48.9405 C154.1793,48.7215 154.2383,48.4625 154.2383,48.1635 C154.2383,47.8755 154.1813,47.6275 154.0703,47.4195" id="Fill-13" fill="#5B5B5B"></path>
                <path d="M164.3409,49.7642 C164.6459,49.6252 164.9039,49.4362 165.1169,49.1962 C165.3309,48.9552 165.4959,48.6762 165.6129,48.3562 C165.7319,48.0352 165.7899,47.6942 165.7899,47.3312 C165.7899,46.9682 165.7319,46.6272 165.6129,46.3072 C165.4959,45.9872 165.3309,45.7062 165.1169,45.4662 C164.9039,45.2262 164.6459,45.0362 164.3409,44.8982 C164.0369,44.7592 163.6979,44.6902 163.3239,44.6902 C162.9509,44.6902 162.6119,44.7592 162.3089,44.8982 C162.0039,45.0362 161.7449,45.2262 161.5319,45.4662 C161.3189,45.7062 161.1529,45.9872 161.0359,46.3072 C160.9179,46.6272 160.8599,46.9682 160.8599,47.3312 C160.8599,47.6942 160.9179,48.0352 161.0359,48.3562 C161.1529,48.6762 161.3189,48.9552 161.5319,49.1962 C161.7449,49.4362 162.0039,49.6252 162.3089,49.7642 C162.6119,49.9032 162.9509,49.9722 163.3239,49.9722 C163.6979,49.9722 164.0369,49.9032 164.3409,49.7642 M164.8369,43.7452 C165.3019,43.9492 165.7039,44.2232 166.0459,44.5702 C166.3879,44.9172 166.6539,45.3272 166.8459,45.8022 C167.0379,46.2782 167.1339,46.7862 167.1339,47.3312 C167.1339,47.8752 167.0379,48.3852 166.8459,48.8602 C166.6539,49.3342 166.3879,49.7452 166.0459,50.0922 C165.7039,50.4392 165.3019,50.7142 164.8369,50.9162 C164.3729,51.1192 163.8689,51.2212 163.3239,51.2212 C162.7799,51.2212 162.2769,51.1192 161.8129,50.9162 C161.3479,50.7142 160.9449,50.4392 160.6039,50.0922 C160.2619,49.7452 159.9949,49.3342 159.8039,48.8602 C159.6119,48.3852 159.5149,47.8752 159.5149,47.3312 C159.5149,46.7862 159.6119,46.2782 159.8039,45.8022 C159.9949,45.3272 160.2619,44.9172 160.6039,44.5702 C160.9449,44.2232 161.3479,43.9492 161.8129,43.7452 C162.2769,43.5432 162.7799,43.4422 163.3239,43.4422 C163.8689,43.4422 164.3729,43.5432 164.8369,43.7452" id="Fill-14" fill="#5B5B5B"></path>
                <path d="M172.0596,43.6344 L172.0596,41.0884 C172.0596,40.6944 172.1286,40.3504 172.2676,40.0564 C172.4066,39.7634 172.5846,39.5174 172.8036,39.3204 C173.0226,39.1224 173.2716,38.9764 173.5486,38.8804 C173.8266,38.7834 174.1036,38.7364 174.3806,38.7364 C174.5626,38.7364 174.7786,38.7624 175.0296,38.8164 C175.2806,38.8694 175.5656,38.9874 175.8856,39.1684 L175.3896,40.2734 C175.0696,40.0804 174.7646,39.9844 174.4766,39.9844 C174.1466,39.9844 173.8846,40.0914 173.6926,40.3044 C173.4996,40.5184 173.4046,40.8064 173.4046,41.1684 L173.4046,43.6344 L175.3256,43.6344 L175.3256,44.8504 L173.4046,44.8504 L173.4046,51.0294 L172.0596,51.0294 L172.0596,44.8504 L170.5236,44.8504 L170.5236,43.6344 L172.0596,43.6344 Z" id="Fill-15" fill="#5B5B5B"></path>
                <path d="M180.0762,43.6344 L180.0762,41.3764 L181.4202,41.3764 L181.4202,43.6344 L183.7252,43.6344 L183.7252,44.8504 L181.4202,44.8504 L181.4202,48.8354 C181.4202,49.1984 181.5112,49.4794 181.6922,49.6764 C181.8742,49.8734 182.1252,49.9724 182.4442,49.9724 C182.6262,49.9724 182.7862,49.9434 182.9252,49.8844 C183.0632,49.8254 183.2022,49.7534 183.3412,49.6684 L183.8372,50.7734 C183.5172,50.9544 183.2372,51.0734 182.9972,51.1334 C182.7572,51.1924 182.5352,51.2214 182.3332,51.2214 C182.0552,51.2214 181.7832,51.1754 181.5162,51.0844 C181.2502,50.9934 181.0102,50.8554 180.7962,50.6684 C180.5832,50.4824 180.4092,50.2414 180.2752,49.9484 C180.1422,49.6554 180.0762,49.3054 180.0762,48.9004 L180.0762,44.8504 L178.6352,44.8504 L178.6352,43.6344 L180.0762,43.6344 Z" id="Fill-16" fill="#5B5B5B"></path>
                <polygon id="Fill-17" fill="#5B5B5B" points="190.3955 48.4195 192.3485 43.6345 193.2605 43.6345 195.2295 48.4195 197.1985 43.6345 198.5755 43.6345 195.1975 51.3495 192.7645 45.7945 190.3325 51.3495 186.9545 43.6345 188.4115 43.6345"></polygon>
                <path d="M206.2451,49.6685 C206.6021,49.4225 206.8831,49.1725 207.0851,48.9155 L207.0851,47.8755 C206.8721,47.7265 206.5951,47.6015 206.2531,47.4995 C205.9111,47.3975 205.5491,47.3475 205.1641,47.3475 C204.5661,47.3475 204.1021,47.4755 203.7711,47.7315 C203.4411,47.9875 203.2751,48.3185 203.2751,48.7245 C203.2751,48.9475 203.3231,49.1435 203.4201,49.3085 C203.5161,49.4735 203.6431,49.6095 203.8041,49.7165 C203.9641,49.8225 204.1421,49.9025 204.3401,49.9565 C204.5371,50.0095 204.7431,50.0365 204.9561,50.0365 C205.4581,50.0365 205.8881,49.9135 206.2451,49.6685 M206.6371,43.6735 C207.0421,43.8285 207.3761,44.0335 207.6381,44.2905 C207.8981,44.5465 208.0971,44.8375 208.2291,45.1625 C208.3631,45.4875 208.4301,45.8215 208.4301,46.1625 L208.4301,51.0285 L207.1971,51.0285 L207.1971,49.9565 C206.9201,50.3405 206.5591,50.6475 206.1171,50.8765 C205.6741,51.1055 205.2021,51.2215 204.7001,51.2215 C204.3581,51.2215 204.0251,51.1645 203.7001,51.0535 C203.3741,50.9405 203.0781,50.7775 202.8111,50.5645 C202.5451,50.3515 202.3311,50.0895 202.1711,49.7805 C202.0111,49.4715 201.9311,49.1185 201.9311,48.7245 C201.9311,48.3505 202.0061,48.0115 202.1551,47.7075 C202.3051,47.4035 202.5101,47.1425 202.7711,46.9235 C203.0331,46.7045 203.3451,46.5335 203.7081,46.4105 C204.0701,46.2885 204.4601,46.2275 204.8761,46.2275 C205.3461,46.2275 205.7721,46.2905 206.1571,46.4195 C206.5411,46.5475 206.8501,46.6865 207.0851,46.8355 L207.0851,46.4355 C207.0851,46.0515 207.0161,45.7435 206.8771,45.5145 C206.7381,45.2845 206.5701,45.1085 206.3731,44.9865 C206.1761,44.8635 205.9681,44.7835 205.7491,44.7465 C205.5301,44.7085 205.3461,44.6895 205.1961,44.6895 C204.8541,44.6895 204.4891,44.7485 204.0991,44.8665 C203.7101,44.9835 203.3451,45.1335 203.0041,45.3145 L202.4431,44.1935 C202.7531,44.0125 203.1471,43.8425 203.6281,43.6825 C204.1081,43.5225 204.6361,43.4415 205.2121,43.4415 C205.7571,43.4415 206.2311,43.5195 206.6371,43.6735" id="Fill-18" fill="#5B5B5B"></path>
                <path d="M216.8848,43.4898 C217.0718,43.5218 217.2498,43.5698 217.4208,43.6348 L216.9248,44.8498 C216.8078,44.7978 216.6708,44.7578 216.5168,44.7298 C216.3628,44.7038 216.2258,44.6898 216.1088,44.6898 C215.8738,44.6898 215.6658,44.7298 215.4848,44.8098 C215.3028,44.8898 215.1398,44.9888 214.9958,45.1058 C214.8518,45.2238 214.7298,45.3568 214.6278,45.5068 C214.5268,45.6558 214.4438,45.8008 214.3798,45.9388 L214.3798,51.0288 L213.0348,51.0288 L213.0348,43.6348 L214.2828,43.6348 L214.2828,44.7698 C214.3798,44.5988 214.4938,44.4338 214.6278,44.2738 C214.7608,44.1138 214.9128,43.9718 215.0838,43.8498 C215.2548,43.7268 215.4478,43.6288 215.6598,43.5538 C215.8738,43.4788 216.1088,43.4418 216.3638,43.4418 C216.5248,43.4418 216.6978,43.4578 216.8848,43.4898" id="Fill-19" fill="#5B5B5B"></path>
                <path d="M226.3409,46.0347 C226.2399,45.8007 226.0959,45.5817 225.9089,45.3787 C225.7229,45.1757 225.4869,45.0107 225.2049,44.8827 C224.9219,44.7547 224.5889,44.6897 224.2039,44.6897 C223.8099,44.6897 223.4709,44.7597 223.1889,44.8977 C222.9049,45.0367 222.6709,45.2057 222.4839,45.4027 C222.2969,45.5997 222.1539,45.8157 222.0519,46.0517 C221.9499,46.2857 221.8889,46.4987 221.8669,46.6907 L226.5099,46.6907 C226.4989,46.4887 226.4429,46.2697 226.3409,46.0347 M225.6539,43.7217 C226.0959,43.9087 226.4779,44.1727 226.7979,44.5137 C227.1169,44.8557 227.3679,45.2687 227.5499,45.7547 C227.7319,46.2397 227.8219,46.7817 227.8219,47.3797 L227.8219,47.5877 C227.8219,47.6517 227.8169,47.7257 227.8059,47.8107 L221.8359,47.8107 C221.8569,48.0897 221.9369,48.3587 222.0749,48.6197 C222.2139,48.8817 222.3959,49.1137 222.6199,49.3157 C222.8439,49.5187 223.1059,49.6797 223.4039,49.7967 C223.7029,49.9137 224.0279,49.9727 224.3809,49.9727 C224.8929,49.9727 225.3379,49.8597 225.7169,49.6367 C226.0959,49.4127 226.3919,49.1617 226.6059,48.8847 L227.4539,49.7637 C227.2939,49.9457 227.1099,50.1247 226.9019,50.3007 C226.6939,50.4767 226.4589,50.6347 226.1969,50.7727 C225.9359,50.9117 225.6509,51.0207 225.3409,51.1007 C225.0309,51.1807 224.6949,51.2217 224.3319,51.2217 C223.7879,51.2217 223.2809,51.1227 222.8119,50.9247 C222.3429,50.7267 221.9399,50.4527 221.6039,50.0997 C221.2679,49.7487 221.0029,49.3327 220.8119,48.8517 C220.6189,48.3717 220.5229,47.8537 220.5229,47.2997 C220.5229,46.7767 220.6119,46.2797 220.7869,45.8107 C220.9629,45.3417 221.2109,44.9307 221.5309,44.5787 C221.8519,44.2257 222.2379,43.9487 222.6919,43.7457 C223.1459,43.5437 223.6499,43.4417 224.2039,43.4417 C224.7279,43.4417 225.2099,43.5347 225.6539,43.7217" id="Fill-20" fill="#5B5B5B"></path>
                <path d="M13.8663,12.7351 C13.0413,11.9101 11.7103,11.9101 10.8843,12.7321 C10.0633,13.5561 10.0633,14.8901 10.8843,15.7131 C11.7103,16.5391 13.0433,16.5391 13.8683,15.7131 C14.6933,14.8901 14.6933,13.5561 13.8663,12.7351" id="Fill-21" fill="#DE323C"></path>
                <path d="M19.555,18.2808 C18.734,17.4558 17.398,17.4558 16.574,18.2808 C15.753,19.1048 15.753,20.4378 16.574,21.2588 C17.398,22.0828 18.734,22.0828 19.555,21.2588 C20.377,20.4378 20.377,19.1048 19.555,18.2808" id="Fill-22" fill="#DE323C"></path>
                <path d="M19.8027,6.6987 C18.8007,5.7007 17.1867,5.7007 16.1837,6.6987 C15.1827,7.6987 15.1827,9.3197 16.1837,10.3187 C17.1867,11.3167 18.8057,11.3167 19.8027,10.3187 C20.8047,9.3197 20.8047,7.6987 19.8027,6.6987" id="Fill-23" fill="#DE323C"></path>
                <path d="M25.4936,12.3194 C24.4916,11.3184 22.8716,11.3184 21.8756,12.3194 C20.8726,13.3204 20.8726,14.9404 21.8726,15.9394 C22.8716,16.9384 24.4946,16.9384 25.4936,15.9374 C26.4946,14.9384 26.4946,13.3204 25.4936,12.3194" id="Fill-24" fill="#DE323C"></path>
                <path d="M31.1108,17.9376 C30.1108,16.9376 28.4918,16.9376 27.4948,17.9356 C26.4908,18.9406 26.4908,20.5586 27.4948,21.5546 C28.4918,22.5586 30.1108,22.5586 31.1108,21.5546 C32.1108,20.5586 32.1108,18.9376 31.1108,17.9376" id="Fill-25" fill="#DE323C"></path>
                <path d="M38.4455,28.8995 C37.2685,30.0765 37.2665,31.9785 38.4455,33.1585 C39.6205,34.3375 41.5275,34.3375 42.7005,33.1585 C43.8795,31.9815 43.8795,30.0755 42.7005,28.8975 C41.5295,27.7225 39.6205,27.7225 38.4455,28.8995" id="Fill-26" fill="#DE323C"></path>
                <path d="M32.7954,34.5536 C31.6164,35.7296 31.6144,37.6346 32.7924,38.8116 C33.9704,39.9876 35.8764,39.9876 37.0504,38.8116 C38.2274,37.6346 38.2274,35.7296 37.0504,34.5536 C35.8764,33.3766 33.9704,33.3766 32.7954,34.5536" id="Fill-27" fill="#DE323C"></path>
                <path d="M27.1703,40.1731 C25.9943,41.3491 25.9943,43.2561 27.1703,44.4331 C28.3493,45.6101 30.2523,45.6101 31.4273,44.4331 C32.6093,43.2561 32.6093,41.3491 31.4273,40.1731 C30.2533,38.9951 28.3493,38.9951 27.1703,40.1731" id="Fill-28" fill="#DE323C"></path>
                <path d="M21.5212,45.8278 C20.3422,46.9998 20.3422,48.9088 21.5182,50.0848 C22.6962,51.2618 24.6012,51.2618 25.7772,50.0848 C26.9572,48.9088 26.9572,46.9998 25.7772,45.8278 C24.6012,44.6478 22.6962,44.6478 21.5212,45.8278" id="Fill-29" fill="#DE323C"></path>
                <path d="M48.302,23.3566 C47.126,22.1806 45.22,22.1806 44.046,23.3566 C42.87,24.5346 42.868,26.4416 44.046,27.6156 C45.22,28.7906 47.128,28.7926 48.302,27.6156 C49.479,26.4386 49.479,24.5346 48.302,23.3566" id="Fill-30" fill="#DE323C"></path>
                <path d="M42.6848,17.8105 C41.5038,16.6345 39.6008,16.6295 38.4248,17.8085 C37.2458,18.9875 37.2458,20.8905 38.4248,22.0685 C39.5998,23.2425 41.5048,23.2425 42.6848,22.0685 C43.8568,20.8935 43.8568,18.9875 42.6848,17.8105" id="Fill-31" fill="#DE323C"></path>
                <path d="M37.0314,12.1541 C35.8524,10.9801 33.9484,10.9801 32.7714,12.1541 C31.5924,13.3341 31.5924,15.2391 32.7714,16.4171 C33.9484,17.5911 35.8524,17.5911 37.0324,16.4171 C38.2094,15.2391 38.2094,13.3341 37.0314,12.1541" id="Fill-32" fill="#DE323C"></path>
                <path d="M31.4108,6.5375 C30.2338,5.3615 28.3288,5.3615 27.1508,6.5375 C25.9768,7.7115 25.9768,9.6205 27.1508,10.7965 C28.3288,11.9745 30.2358,11.9745 31.4108,10.7965 C32.5888,9.6205 32.5888,7.7115 31.4108,6.5375" id="Fill-33" fill="#DE323C"></path>
                <path d="M25.7561,0.8839 C24.5821,-0.2931 22.6741,-0.2961 21.4971,0.8839 C20.3241,2.0619 20.3241,3.9659 21.4971,5.1399 C22.6741,6.3179 24.5821,6.3179 25.7561,5.1399 C26.9341,3.9659 26.9341,2.0619 25.7561,0.8839" id="Fill-34" fill="#DE323C"></path>
                <path d="M16.1824,40.5508 C15.1824,41.5528 15.1824,43.1728 16.1824,44.1698 C17.1844,45.1708 18.8034,45.1708 19.8024,44.1698 C20.8044,43.1728 20.8044,41.5528 19.8024,40.5508 C18.8004,39.5528 17.1844,39.5528 16.1824,40.5508" id="Fill-35" fill="#DE323C"></path>
                <path d="M10.9548,35.1954 C10.1308,36.0174 10.1308,37.3504 10.9548,38.1734 C11.7798,38.9994 13.1138,38.9994 13.9378,38.1784 C14.7638,37.3504 14.7638,36.0144 13.9378,35.1934 C13.1138,34.3684 11.7788,34.3684 10.9548,35.1954" id="Fill-36" fill="#DE323C"></path>
                <path d="M16.5038,29.5072 C15.6788,30.3292 15.6788,31.6632 16.5038,32.4852 C17.3248,33.3102 18.6598,33.3102 19.4848,32.4852 C20.3088,31.6632 20.3088,30.3282 19.4848,29.5072 C18.6598,28.6822 17.3248,28.6822 16.5038,29.5072" id="Fill-37" fill="#DE323C"></path>
                <path d="M22.1551,23.9213 C21.3351,24.7483 21.3351,26.0813 22.1551,26.9033 C22.9841,27.7263 24.3171,27.7263 25.1401,26.9033 C25.9621,26.0813 25.9621,24.7463 25.1401,23.9213 C24.3171,23.0963 22.9841,23.0963 22.1551,23.9213" id="Fill-38" fill="#DE323C"></path>
                <path d="M11.2763,24.1274 C10.6293,24.7754 10.6293,25.8214 11.2763,26.4694 C11.9193,27.1164 12.9723,27.1164 13.6193,26.4694 C14.2613,25.8214 14.2613,24.7754 13.6193,24.1254 C12.9723,23.4804 11.9193,23.4804 11.2763,24.1274" id="Fill-39" fill="#DE323C"></path>
                <path d="M5.5511,29.7099 C4.9021,30.3569 4.9021,31.4029 5.5511,32.0549 C6.1951,32.7009 7.2471,32.7009 7.8931,32.0549 C8.5391,31.4029 8.5391,30.3569 7.8931,29.7099 C7.2471,29.0639 6.1971,29.0639 5.5511,29.7099" id="Fill-40" fill="#DE323C"></path>
                <path d="M6.0226,18.8226 C5.3766,19.4726 5.3736,20.5196 6.0226,21.1626 C6.6716,21.8126 7.7176,21.8126 8.3646,21.1626 C9.0126,20.5196 9.0126,19.4726 8.3646,18.8226 C7.7176,18.1766 6.6716,18.1766 6.0226,18.8226" id="Fill-41" fill="#DE323C"></path>
                <path d="M0.4304,24.3494 C-0.1436,24.9244 -0.1436,25.8544 0.4294,26.4284 C1.0044,27.0014 1.9334,27.0014 2.5044,26.4284 C3.0794,25.8544 3.0794,24.9244 2.5044,24.3494 C1.9334,23.7764 1.0044,23.7764 0.4304,24.3494" id="Fill-42" fill="#DE323C"></path>
                <path d="M21.8018,34.8631 C20.8018,35.8651 20.8018,37.4851 21.8018,38.4831 C22.8048,39.4851 24.4238,39.4851 25.4218,38.4831 C26.4238,37.4851 26.4238,35.8611 25.4198,34.8631 C24.4218,33.8621 22.8018,33.8621 21.8018,34.8631" id="Fill-43" fill="#DE323C"></path>
                <path d="M27.4178,29.2437 C26.4218,30.2467 26.4218,31.8647 27.4178,32.8637 C28.4218,33.8657 30.0408,33.8657 31.0388,32.8637 C32.0418,31.8647 32.0418,30.2467 31.0388,29.2437 C30.0408,28.2457 28.4218,28.2457 27.4178,29.2437" id="Fill-44" fill="#DE323C"></path>
                <path d="M33.1101,23.627 C32.1101,24.628 32.1101,26.244 33.1101,27.246 C34.1121,28.247 35.7311,28.246 36.7291,27.246 C37.7301,26.244 37.7301,24.628 36.7291,23.627 C35.7311,22.626 34.1121,22.626 33.1101,23.627" id="Fill-45" fill="#DE323C"></path>
                <path d="M166.6289,29.5891 C167.7709,28.9651 168.6699,28.2661 169.3289,27.4891 L172.1519,30.2771 C171.7059,30.8181 171.1639,31.3361 170.5279,31.8301 C169.8939,32.3241 169.1759,32.7721 168.3759,33.1721 C167.5759,33.5711 166.6939,33.8891 165.7299,34.1251 C164.7649,34.3601 163.7409,34.4771 162.6579,34.4771 C160.8699,34.4771 159.2119,34.1541 157.6829,33.5071 C156.1529,32.8601 154.8289,31.9651 153.7119,30.8241 C152.5939,29.6831 151.7179,28.3361 151.0819,26.7831 C150.4459,25.2311 150.1299,23.5361 150.1299,21.7011 C150.1299,19.8661 150.4459,18.1721 151.0819,16.6191 C151.7179,15.0661 152.5939,13.7191 153.7119,12.5781 C154.8289,11.4371 156.1529,10.5431 157.6829,9.8951 C159.2119,9.2481 160.8579,8.9251 162.6229,8.9251 C163.7299,8.9251 164.7529,9.0431 165.6939,9.2781 C166.6349,9.5131 167.4929,9.8191 168.2709,10.1951 C169.0459,10.5721 169.7299,10.9891 170.3169,11.4481 C170.9049,11.9071 171.3999,12.3601 171.7999,12.8071 L168.9409,15.5951 C168.3529,14.9371 167.5229,14.3191 166.4519,13.7421 C165.3819,13.1661 164.1169,12.8781 162.6579,12.8781 C161.4349,12.8781 160.3169,13.1131 159.3059,13.5841 C158.2939,14.0541 157.4289,14.6951 156.7119,15.5071 C155.9929,16.3191 155.4349,17.2541 155.0349,18.3131 C154.6349,19.3721 154.4349,20.5011 154.4349,21.7011 C154.4349,22.9011 154.6349,24.0301 155.0349,25.0891 C155.4349,26.1481 155.9989,27.0831 156.7299,27.8951 C157.4579,28.7071 158.3289,29.3481 159.3409,29.8181 C160.3529,30.2891 161.4699,30.5251 162.6939,30.5251 C164.1769,30.5251 165.4869,30.2131 166.6289,29.5891" id="Fill-46" fill="#282828"></path>
                <path d="M224.0616,26.1482 C223.8386,25.7952 223.5266,25.4782 223.1266,25.1952 C222.7276,24.9132 222.2506,24.6602 221.6986,24.4362 C221.1446,24.2132 220.5386,23.9832 219.8796,23.7482 C218.9856,23.4192 218.0806,23.0422 217.1636,22.6192 C216.2456,22.1952 215.4156,21.6832 214.6746,21.0842 C213.9326,20.4832 213.3276,19.7832 212.8566,18.9832 C212.3856,18.1842 212.1516,17.2312 212.1516,16.1252 C212.1516,15.1842 212.3386,14.2772 212.7156,13.4072 C213.0916,12.5372 213.6266,11.7722 214.3216,11.1132 C215.0146,10.4542 215.8566,9.9252 216.8446,9.5252 C217.8326,9.1252 218.9386,8.9252 220.1636,8.9252 C221.1266,8.9252 222.0206,9.0432 222.8446,9.2782 C223.6676,9.5132 224.4206,9.8192 225.1026,10.1952 C225.7866,10.5722 226.3916,10.9952 226.9206,11.4662 C227.4506,11.9372 227.9036,12.3952 228.2806,12.8422 L225.3506,15.7362 C225.0676,15.3832 224.7506,15.0432 224.3976,14.7132 C224.0436,14.3832 223.6446,14.0892 223.1986,13.8312 C222.7506,13.5722 222.2806,13.3602 221.7866,13.1952 C221.2916,13.0302 220.7626,12.9482 220.1986,12.9482 C219.1386,12.9482 218.2506,13.2312 217.5336,13.7952 C216.8156,14.3602 216.4566,15.0892 216.4566,15.9832 C216.4566,16.5482 216.6096,17.0302 216.9156,17.4312 C217.2216,17.8312 217.6266,18.1772 218.1326,18.4722 C218.6386,18.7662 219.2096,19.0302 219.8446,19.2662 L221.7866,20.0072 C222.7046,20.3602 223.5806,20.7422 224.4156,21.1542 C225.2506,21.5652 225.9856,22.0542 226.6206,22.6192 C227.2566,23.1832 227.7626,23.8542 228.1396,24.6302 C228.5146,25.4072 228.7046,26.3242 228.7046,27.3832 C228.7046,28.5602 228.4736,29.5952 228.0146,30.4892 C227.5556,31.3832 226.9386,32.1252 226.1636,32.7122 C225.3856,33.3012 224.4916,33.7422 223.4796,34.0362 C222.4676,34.3302 221.3976,34.4772 220.2686,34.4772 C219.0916,34.4772 218.0266,34.3302 217.0746,34.0362 C216.1216,33.7422 215.2626,33.3592 214.4976,32.8892 C213.7336,32.4192 213.0686,31.8772 212.5026,31.2662 C211.9386,30.6542 211.4566,30.0422 211.0566,29.4302 L214.2336,26.7482 C214.5146,27.1952 214.8506,27.6362 215.2396,28.0712 C215.6266,28.5072 216.0686,28.9012 216.5626,29.2542 C217.0566,29.6072 217.6096,29.8952 218.2216,30.1192 C218.8326,30.3422 219.5146,30.4542 220.2686,30.4542 C220.7626,30.4542 221.2506,30.4012 221.7336,30.2952 C222.2156,30.1892 222.6566,30.0192 223.0566,29.7832 C223.4566,29.5482 223.7806,29.2362 224.0266,28.8482 C224.2746,28.4602 224.3976,27.9952 224.3976,27.4542 C224.3976,26.9362 224.2866,26.5012 224.0616,26.1482" id="Fill-47" fill="#282828"></path>
                <polygon id="Fill-48" fill="#282828" points="66.4114 34.054 73.6464 18.243 80.9354 34.054 85.2634 34.054 73.6324 8.823 62.0874 34.054"></polygon>
                <path d="M200.9782,9.3484 L200.9782,25.0894 C200.9782,26.4534 200.7542,27.7064 200.3072,28.8484 C199.8612,29.9894 199.2252,30.9774 198.4022,31.8124 C197.5782,32.6484 196.5782,33.3014 195.4022,33.7714 C194.2252,34.2424 192.9082,34.4774 191.4492,34.4774 C189.9902,34.4774 188.6722,34.2424 187.4962,33.7714 C186.3202,33.3014 185.3202,32.6484 184.4962,31.8124 C183.6722,30.9774 183.0372,29.9894 182.5892,28.8484 C182.1432,27.7064 181.9192,26.4534 181.9192,25.0894 L181.9192,9.3484 L186.1552,9.3484 L186.1552,24.5594 C186.1552,26.3244 186.5952,27.7484 187.4782,28.8304 C188.3612,29.9124 189.6842,30.4534 191.4492,30.4534 C193.2132,30.4534 194.5372,29.9124 195.4192,28.8304 C196.3012,27.7484 196.7432,26.3244 196.7432,24.5594 L196.7432,9.3484 L200.9782,9.3484 Z" id="Fill-49" fill="#282828"></path>
                <polygon id="Fill-50" fill="#282828" points="123.7108 34.054 130.9458 18.243 138.2348 34.054 142.5628 34.054 130.9318 8.823 119.3868 34.054"></polygon>
                <path d="M106.3062,29.2718 C105.5302,29.7778 104.5532,30.0308 103.3772,30.0308 L98.8592,30.0308 L98.8592,13.3718 L102.4942,13.3718 C103.5532,13.3718 104.4352,13.6068 105.1412,14.0778 C105.8472,14.5488 106.2002,15.3488 106.2002,16.4778 C106.2002,17.5368 105.8772,18.2948 105.2292,18.7538 C104.5822,19.2128 103.6712,19.4428 102.4942,19.4428 L103.3772,23.4658 C104.5532,23.4658 105.5302,23.7188 106.3062,24.2248 C107.0822,24.7308 107.4712,25.5718 107.4712,26.7488 C107.4712,27.9248 107.0822,28.7658 106.3062,29.2718 M111.2292,23.9958 C110.8652,23.2658 110.4532,22.6778 109.9942,22.2308 C109.5352,21.7838 109.1002,21.4658 108.6882,21.2778 C108.2772,21.0898 108.0242,20.9838 107.9302,20.9598 C108.0712,20.8898 108.2832,20.7538 108.5652,20.5538 C108.8472,20.3548 109.1352,20.0658 109.4302,19.6898 C109.7232,19.3138 109.9762,18.8308 110.1882,18.2428 C110.4002,17.6538 110.5062,16.9368 110.5062,16.0898 C110.5062,14.9128 110.2832,13.9008 109.8352,13.0548 C109.3882,12.2078 108.8002,11.5068 108.0712,10.9548 C107.3412,10.4008 106.5062,9.9958 105.5652,9.7368 C104.6242,9.4778 103.6472,9.3488 102.6362,9.3488 L94.6242,9.3488 L94.6242,34.0538 L103.5182,34.0538 C104.6712,34.0538 105.7532,33.8778 106.7652,33.5248 C107.7772,33.1718 108.6532,32.6778 109.3942,32.0428 C110.1352,31.4068 110.7182,30.6368 111.1412,29.7308 C111.5652,28.8248 111.7762,27.8188 111.7762,26.7128 C111.7762,25.6308 111.5942,24.7248 111.2292,23.9958" id="Fill-51" fill="#282828"></path>
            </g>
        </g>
    </g>
</svg>